# generated from PmQm by Jehee Lee
:FULLY-SPECIFIED
:DEGREES
459
root -45.2333 38.8952 -1.6938 -0.350791 39.4604 -3.23334
RightUpLeg 1.43777 -6.09423 4.04525
RightLeg 13.1686 -13.9128 -1.91011
RightFoot -12.4417 -0.0182249 6.78786
RightToes -0.000541893 -0.000659172 -0.000493268
Spine 0.259393 1.92902 2.07337
Spine1 0.575661 3.83508 4.55816
HEad 30.9299 11.2116 -9.48697
LeftShoulder1 -3.88251e-019 -0 -3.92111e-022
LeftArm -37.7119 9.93349 -84.0965
LeftForeArm 31.9627 1.98365 1.27209
LeftHand -0.578501 -4.44527 7.11133
RightShoulder 7.45443e-017 -2.42657e-020 1.96277e-018
RightArm -26.0328 -10.0071 70.2198
RightForeArm 29.7547 2.99035 4.99696
RightHand -1.68133 10.911 -12.3068
LeftUpLeg -13.2955 -1.81785 -3.73937
LeftLeg 6.88193 25.0523 2.23738
LeftFoot 0.0988571 -0.858644 8.54229
LeftToes 3.91355e-005 3.11907e-005 -4.10385e-006
460
root -44.6639 38.8716 -1.16172 -0.338526 41.5756 -2.87762
RightUpLeg 0.0509213 -15.667 2.29069
RightLeg 19.0984 -5.22384 -2.21918
RightFoot -11.8668 -0.038289 9.24211
RightToes -0.000541893 -0.000659172 -0.000493268
Spine 0.0881319 1.7383 1.52613
Spine1 0.185227 3.42903 4.01556
HEad 31.2636 11.3952 -7.911
LeftShoulder1 -3.88251e-019 -0 -3.92111e-022
LeftArm -38.0206 10.4565 -84.0423
LeftForeArm 32.1951 1.94395 1.96447
LeftHand -0.60007 -4.44033 7.36848
RightShoulder 7.45443e-017 -2.42657e-020 1.96277e-018
RightArm -26.5292 -10.9467 71.4886
RightForeArm 27.8163 3.30102 4.63338
RightHand -1.48365 10.2902 -11.3237
LeftUpLeg -12.0696 -2.05514 -4.56031
LeftLeg 7.37957 23.3459 2.26579
LeftFoot -1.18549 -0.664237 7.54415
LeftToes 3.91355e-005 3.11907e-005 -4.10385e-006
461
root -44.1368 38.8087 -0.679701 -0.539471 43.7738 -2.6893
RightUpLeg -1.72026 -18.5746 0.577912
RightLeg 25.9141 -1.83626 -1.19626
RightFoot -9.61379 -0.241725 11.6333
RightToes -0.000541893 -0.000659172 -0.000493268
Spine 0.009721820012 1.5978 1.07881
Spine1 -0.0151154 3.09475 3.65498
HEad 31.0052 11.2956 -6.36367
LeftShoulder1 -3.88251e-019 -0 -3.92111e-022
LeftArm -38.1585 10.79 -84.3595
LeftForeArm 32.3582 1.92303 2.47333
LeftHand -0.617147 -4.38799 7.60695
RightShoulder 7.45443e-017 -2.42657e-020 1.96277e-018
RightArm -26.6437 -12.2351 72.0709
RightForeArm 26.1306 4.41605 5.13145
RightHand -1.41078 10.1638 -10.8729
LeftUpLeg -11.0111 -2.03061 -5.19533
LeftLeg 8.39152 21.1484 2.33412
LeftFoot -2.63663 -0.514058 6.95392
LeftToes 3.91355e-005 3.11907e-005 -4.10385e-006
462
root -43.6795 38.6855 -0.242281 -0.54309 45.9811 -1.99268
RightUpLeg -4.34702 -18.1546 -1.02434
RightLeg 34.0561 0.240094 -0.0703898
RightFoot -5.90451 -0.608695 12.0217
RightToes -0.000541893 -0.000659172 -0.000493268
Spine 0.135512 1.53761 0.458437
Spine1 0.186545 2.88013 3.05963
HEad 29.9324 11.0961 -5.14127
LeftShoulder1 -3.88251e-019 -0 -3.92111e-022
LeftArm -37.8042 10.8303 -84.511
LeftForeArm 32.3529 1.93658 2.10022
LeftHand -0.602588 -4.29914 7.4976
RightShoulder 7.45443e-017 -2.42657e-020 1.96277e-018
RightArm -26.6313 -13.1666 72.2692
RightForeArm 26.2107 5.52936 6.0058
RightHand -1.5665 10.6489 -11.6727
LeftUpLeg -10.1601 -2.12777 -6.17018
LeftLeg 9.95581 19.2832 2.66174
LeftFoot -4.50131 -0.364032 6.53482
LeftToes 3.91355e-005 3.11907e-005 -4.10385e-006
463
root -43.3045 38.5082 0.166223 -0.180091 48.2475 -0.867889
RightUpLeg -7.56812 -15.1948 -2.27263
RightLeg 42.1736 1.08169 0.764975
RightFoot -2.71947 -0.826234 10.7115
RightToes -0.000541893 -0.000659172 -0.000493268
Spine 0.391839 1.45155 -0.307862
Spine1 0.651075 2.5978 2.15758
HEad 28.5931 11.147 -4.42616
LeftShoulder1 -3.88251e-019 -0 -3.92111e-022
LeftArm -37.2737 10.3338 -84.2395
LeftForeArm 32.7649 1.95355 1.47449
LeftHand -0.609276 -4.2969 7.57922
RightShoulder 7.45443e-017 -2.42657e-020 1.96277e-018
RightArm -26.6175 -13.1218 72.8179
RightForeArm 27.0969 5.67233 6.37891
RightHand -1.6696 10.9047 -12.2293
LeftUpLeg -9.69713 -2.22205 -7.35463
LeftLeg 11.9723 17.3342 3.13514
LeftFoot -6.1167 -0.258312 6.46087
LeftToes 3.91355e-005 3.11907e-005 -4.10385e-006
464
root -42.9795 38.3777 0.585704 -0.0568115 50.8945 -0.22049
RightUpLeg -10.2181 -11.2402 -2.76854
RightLeg 47.3314 0.636118 0.407354
RightFoot -2.31309 -0.774656 9.5954
RightToes -0.000541893 -0.000659172 -0.000493268
Spine 0.637273 1.23322 -0.850327
Spine1 1.11794 2.08439 1.49578
HEad 27.8522 11.2688 -4.14057
LeftShoulder1 -3.88251e-019 -0 -3.92111e-022
LeftArm -37.0173 9.36493 -83.9444
LeftForeArm 33.4628 1.94703 1.276
LeftHand -0.64728 -4.48903 7.88767
RightShoulder 7.45443e-017 -2.42657e-020 1.96277e-018
RightArm -26.5929 -12.4781 73.6534
RightForeArm 27.4845 5.06089 6.04687
RightHand -1.57898 10.7162 -11.718
LeftUpLeg -9.20477 -1.95838 -8.00881
LeftLeg 13.6745 14.6156 3.18077
LeftFoot -7.41547 -0.201092 7.16812
LeftToes 3.91355e-005 3.11907e-005 -4.10385e-006
465
root -42.6661 38.3778 1.01799 -0.606276 54.203 -0.591492
RightUpLeg -12.0836 -7.25238 -2.42198
RightLeg 48.5359 -0.794512 -1.301
RightFoot -4.21618 -0.557263 8.47323
RightToes -0.000541893 -0.000659172 -0.000493268
Spine 0.804395 0.928248 -0.989773
Spine1 1.46045 1.46004 1.44501
HEad 27.7848 10.9263 -4.12304
LeftShoulder1 -3.88251e-019 -0 -3.92111e-022
LeftArm -36.7808 8.06612 -83.9619
LeftForeArm 33.6551 1.94545 1.23592
LeftHand -0.672783 -4.68408 8.03934
RightShoulder 7.45443e-017 -2.42657e-020 1.96277e-018
RightArm -26.5596 -12.1872 74.1074
RightForeArm 27.73 4.79327 5.79918
RightHand -1.49624 10.5636 -11.2307
LeftUpLeg -8.25375 -1.73107 -7.85493
LeftLeg 14.1535 11.4184 2.66876
LeftFoot -8.24214 -0.175351 8.30389
LeftToes 3.91355e-005 3.11907e-005 -4.10385e-006
466
root -42.3775 38.428 1.43332 -1.38054 57.9758 -1.49411
RightUpLeg -13.9702 -3.65694 -1.87859
RightLeg 47.0663 -2.54685 -3.25032
RightFoot -6.29296 -0.330913 6.53301
RightToes -0.000541893 -0.000659172 -0.000493268
Spine 0.902078 0.637399 -0.886088
Spine1 1.6945 0.943415 1.66662
HEad 27.6945 10.0993 -4.31341
LeftShoulder1 -3.88251e-019 -0 -3.92111e-022
LeftArm -36.2091 6.5458 -84.2627
LeftForeArm 33.4188 1.97148 0.970443
LeftHand -0.67573 -4.65992 8.09129
RightShoulder 7.45443e-017 -2.42657e-020 1.96277e-018
RightArm -26.4851 -12.5574 73.9251
RightForeArm 27.9803 5.28014 6.21009
RightHand -1.4714 10.4716 -11.1126
LeftUpLeg -7.40137 -1.72398 -7.3804
LeftLeg 14.1471 7.91547 2.02311
LeftFoot -8.65943 -0.167296 9.35537
LeftToes 3.91355e-005 3.11907e-005 -4.10385e-006
467
root -42.118 38.4465 1.82911 -1.81057 61.8066 -2.17352
RightUpLeg -16.0738 -0.610295 -1.85571
RightLeg 43.804 -4.28862 -4.68481
RightFoot -7.33216 -0.209819 4.58849
RightToes -0.000541893 -0.000659172 -0.000493268
Spine 0.984032 0.366714 -0.699918
Spine1 1.91655 0.528565 1.77015
HEad 27.1194 9.25198 -4.70709
LeftShoulder1 -3.88251e-019 -0 -3.92111e-022
LeftArm -35.5314 5.18114 -84.6635
LeftForeArm 33.4439 2.01942 0.41297
LeftHand -0.680151 -4.586 8.1982
RightShoulder 7.45443e-017 -2.42657e-020 1.96277e-018
RightArm -26.3726 -12.9582 73.49
RightForeArm 27.6311 5.76513 6.66882
RightHand -1.43593 10.3414 -10.941
LeftUpLeg -7.03406 -1.73149 -6.99335
LeftLeg 14.5678 4.29635 1.32047
LeftFoot -9.19251 -0.140467 10.4329
LeftToes 3.91355e-005 3.11907e-005 -4.10385e-006
468
root -41.8509 38.4639 2.21719 -1.93196 65.5323 -2.55511
RightUpLeg -17.9255 1.92776 -2.37847
RightLeg 38.5825 -5.78714 -5.18246
RightFoot -7.47501 -0.16654 3.43329
RightToes -0.000541893 -0.000659172 -0.000493268
Spine 1.08478 0.0937629 -0.437349
Spine1 2.17508 0.119629 1.76165
HEad 26.2812 8.54159 -5.17751
LeftShoulder1 -3.88251e-019 -0 -3.92111e-022
LeftArm -34.9975 4.20126 -84.956
LeftForeArm 33.9075 2.08632 -0.324327
LeftHand -0.703174 -4.66722 8.40108
RightShoulder 7.45443e-017 -2.42657e-020 1.96277e-018
RightArm -26.3465 -12.8194 73.2445
RightForeArm 27.0535 5.51485 6.3644
RightHand -1.447 10.339 -11.0231
LeftUpLeg -6.75424 -1.64734 -6.62389
LeftLeg 14.9732 0.70091 0.39425
LeftFoot -9.78178 -0.0978561 11.4938
LeftToes 3.91355e-005 3.11907e-005 -4.10385e-006
